<svg xmlns="http://www.w3.org/2000/svg" viewBox="0 0 48 48">
  <linearGradient id="oneDriveGrad" x1="24" x2="24" y1="8" y2="40" gradientUnits="userSpaceOnUse">
    <stop offset="0" stop-color="#1490df"/>
    <stop offset="1" stop-color="#1068bf"/>
  </linearGradient>
  <path fill="url(#oneDriveGrad)" d="M42,30c0,3.314-2.686,6-6,6H12c-4.418,0-8-3.582-8-8c0-3.866,2.738-7.086,6.384-7.83C10.137,18.944,10,17.736,10,16.5C10,11.253,14.253,7,19.5,7c4.015,0,7.438,2.498,8.816,6.025C29.282,11.77,30.809,11,32.5,11c3.038,0,5.5,2.462,5.5,5.5c0,0.566-0.086,1.112-0.245,1.625C40.699,19.371,42,21.867,42,24.5V30z"/>
  <path fill="#0364b8" d="M20,36H12c-4.418,0-8-3.582-8-8c0-3.866,2.738-7.086,6.384-7.83C10.137,18.944,10,17.736,10,16.5C10,11.253,14.253,7,19.5,7c4.015,0,7.438,2.498,8.816,6.025c-0.107-0.016-0.215-0.025-0.316-0.025c-3.314,0-6,2.686-6,6c0,0.341,0.029,0.675,0.084,1H20V36z"/>
</svg>
